<?xml version="1.0" encoding="UTF-8" standalone="no"?>
<!-- Created with Inkscape (http://www.inkscape.org/) -->

<svg
   width="101.14709mm"
   height="88.509949mm"
   viewBox="0 0 101.14709 88.509949"
   version="1.1"
   id="svg5"
   sodipodi:docname="score-select.svg"
   inkscape:version="1.1 (c68e22c387, 2021-05-23)"
   xmlns:inkscape="http://www.inkscape.org/namespaces/inkscape"
   xmlns:sodipodi="http://sodipodi.sourceforge.net/DTD/sodipodi-0.dtd"
   xmlns="http://www.w3.org/2000/svg"
   xmlns:svg="http://www.w3.org/2000/svg">
  <sodipodi:namedview
     id="namedview7"
     pagecolor="#ffffff"
     bordercolor="#666666"
     borderopacity="1.0"
     inkscape:pageshadow="2"
     inkscape:pageopacity="0.0"
     inkscape:pagecheckerboard="true"
     inkscape:document-units="mm"
     showgrid="false"
     inkscape:zoom="1.2044332"
     inkscape:cx="103.78325"
     inkscape:cy="27.813912"
     inkscape:window-width="1920"
     inkscape:window-height="1017"
     inkscape:window-x="-8"
     inkscape:window-y="-8"
     inkscape:window-maximized="1"
     inkscape:current-layer="layer1"
     fit-margin-top="0"
     fit-margin-left="0"
     fit-margin-right="0"
     fit-margin-bottom="0" />
  <defs
     id="defs2">
    <pattern
       id="EMFhbasepattern"
       patternUnits="userSpaceOnUse"
       width="6"
       height="6"
       x="0"
       y="0" />
  </defs>
  <g
     inkscape:label="レイヤー 1"
     inkscape:groupmode="layer"
     id="layer1"
     transform="translate(-180.08474,-121.81899)">
    <path
       style="fill:#ffffff;fill-opacity:1;fill-rule:evenodd;stroke:#ffffff;stroke-width:0.264583;stroke-opacity:1"
       d="m 191.47969,161.03899 c 0.1325,-21.68031 17.67219,-39.22 39.30281,-39.22 21.63063,0 39.17031,17.53969 39.17031,39.17031 0,21.64719 -17.53968,39.17031 -39.17031,39.17031 -21.63062,0 -39.17031,-17.52312 -39.30281,-39.12062 z"
       id="path827" />
    <path
       style="fill:#ffffff;fill-opacity:1;fill-rule:evenodd;stroke:#ffffff;stroke-width:0.264583;stroke-opacity:1"
       d="m 198.63469,157.06399 c -0.0994,-17.82125 14.29344,-32.1975 32.03187,-32.1975 17.73844,0 32.11469,14.37625 32.11469,32.11469 0,17.73843 -14.37625,32.13125 -32.11469,32.13125 -17.73843,0 -32.13125,-14.39282 -32.03187,-32.04844 z"
       id="path829" />
    <path
       style="fill:#ffffff;fill-opacity:1;fill-rule:evenodd;stroke:#ffffff;stroke-width:0.264583;stroke-opacity:1"
       d="m 196.24969,179.85399 24.645,-34.715 -17.755,38.69 z"
       id="path831" />
    <path
       style="fill:#ffffff;stroke:#ffffff;stroke-width:2.65px;stroke-linecap:round;stroke-linejoin:round;stroke-miterlimit:4;stroke-dasharray:none;stroke-opacity:1"
       d="m 196.24969,179.95336 24.66156,-34.73156 -17.755,38.73969 z"
       id="path833" />
    <path
       style="fill:#ffffff;fill-opacity:1;fill-rule:evenodd;stroke:#ffffff;stroke-width:0.264583;stroke-opacity:1"
       d="m 196.24969,179.85399 6.89,3.975 -10.6,18.55 -6.89,-3.975 z"
       id="path835" />
    <path
       style="fill:#ffffff;stroke:#ffffff;stroke-width:2.65px;stroke-linecap:round;stroke-linejoin:round;stroke-miterlimit:4;stroke-dasharray:none;stroke-opacity:1"
       d="m 196.3325,179.8043 6.92313,4.00813 -10.74907,18.59968 -6.92312,-3.99156 z"
       id="path837" />
    <path
       style="fill:#ffffff;fill-opacity:1;fill-rule:evenodd;stroke:#ffffff;stroke-width:0.264583;stroke-opacity:1"
       d="m 193.86469,182.50399 8.215,4.77 -12.72,21.73 -7.95,-4.505 z"
       id="path839" />
    <path
       style="fill:#ffffff;stroke:#ffffff;stroke-width:2.65px;stroke-linecap:round;stroke-linejoin:round;stroke-miterlimit:4;stroke-dasharray:none;stroke-opacity:1"
       d="m 193.96406,182.63649 8.01625,4.6375 -12.55437,21.73 -8.01625,-4.62094 z"
       id="path841" />
    <path
       style="fill:#ffffff;fill-opacity:1;fill-rule:evenodd;stroke:#ffffff;stroke-width:0.264583;stroke-opacity:1"
       d="m 258.25969,183.82899 -17.755,-38.69 24.645,34.715 z"
       id="path843" />
    <path
       style="fill:#ffffff;stroke:#ffffff;stroke-width:2.65px;stroke-linecap:round;stroke-linejoin:round;stroke-miterlimit:4;stroke-dasharray:none;stroke-opacity:1"
       d="m 258.16031,183.96149 -17.755,-38.73969 24.67813,34.73156 z"
       id="path845" />
    <path
       style="fill:#ffffff;fill-opacity:1;fill-rule:evenodd;stroke:#ffffff;stroke-width:0.264583;stroke-opacity:1"
       d="m 257.99469,183.82899 6.89,-3.975 10.865,18.55 -6.89,3.975 z"
       id="path847" />
    <path
       style="fill:#ffffff;stroke:#ffffff;stroke-width:2.65px;stroke-linecap:round;stroke-linejoin:round;stroke-miterlimit:4;stroke-dasharray:none;stroke-opacity:1"
       d="m 258.06094,183.81243 6.92312,-4.00813 10.74907,18.61625 -6.92313,3.99156 z"
       id="path849" />
    <path
       style="fill:#ffffff;fill-opacity:1;fill-rule:evenodd;stroke:#ffffff;stroke-width:0.264583;stroke-opacity:1"
       d="m 259.31969,187.27399 7.95,-4.505 12.72,21.73 -8.215,4.505 z"
       id="path851" />
    <path
       style="fill:#ffffff;stroke:#ffffff;stroke-width:2.65px;stroke-linecap:round;stroke-linejoin:round;stroke-miterlimit:4;stroke-dasharray:none;stroke-opacity:1"
       d="m 259.35282,187.30711 8.01624,-4.6375 12.53782,21.71344 -8.01625,4.62094 z"
       id="path853" />
  </g>
</svg>
